<svg xmlns="http://www.w3.org/2000/svg" width="208" height="50" viewBox="0 0 208 50">
  <g id="그룹_135" data-name="그룹 135" transform="translate(-2156 1664)">
    <g id="사각형_414" data-name="사각형 414" transform="translate(2156 -1664)" fill="none" stroke="#e5e5e5" stroke-width="1">
      <rect width="208" height="50" rx="4" stroke="none"/>
      <rect x="0.5" y="0.5" width="207" height="49" rx="3.5" fill="none"/>
    </g>
    <path id="패스_13222" data-name="패스 13222" d="M-1834.213,835.387c.949,0,1.921.047,2.87-.024.688-.047.806.261.854.83a6.9,6.9,0,0,1-6.736,7.685,7.859,7.859,0,0,1-8.491-7.187,7.753,7.753,0,0,1,4.2-7.5,7.752,7.752,0,0,1,8.539.759c.427.356.522.569.071.925a3.036,3.036,0,0,0-.617.617c-.308.4-.545.308-.925.024a5.487,5.487,0,0,0-6.523-.166,5.772,5.772,0,0,0-2.135,6.641,5.554,5.554,0,0,0,5.456,3.748,4.773,4.773,0,0,0,4.767-3.273c.213-.688.19-1.044-.688-1-1.139.071-2.3,0-3.463.024-.545.024-.783-.071-.783-.711.024-1.423-.024-1.423,1.4-1.423C-1835.683,835.387-1834.948,835.387-1834.213,835.387Z" transform="translate(4056.024 -2469.785)" fill="#333"/>
    <path id="패스_13223" data-name="패스 13223" d="M-1677.774,860.709c-2.443,1.518-4.649,1.233-6.285-.735a5.044,5.044,0,0,1,.119-6.736c1.637-1.85,3.89-2.087,6.12-.617.19-1.233,1.162-.593,1.779-.664.712-.071.4.593.427.925.024,2.917.047,5.811,0,8.729a4.5,4.5,0,0,1-3.25,4.459,4.922,4.922,0,0,1-5.6-2.087c-.142-.214-.546-.593-.119-.735.569-.213,1.186-1.044,1.826-.379,1.257,1.3,2.229,1.708,3.487,1.233C-1678.153,863.65-1677.679,862.654-1677.774,860.709Zm.214-4.008a2.867,2.867,0,0,0-2.728-3.083,3.008,3.008,0,0,0-2.8,3.06,2.975,2.975,0,0,0,2.8,3.06A2.811,2.811,0,0,0-1677.56,856.7Z" transform="translate(3933.622 -2487.635)" fill="#333"/>
    <path id="패스_13224" data-name="패스 13224" d="M-1973.3,804.958V799.1a2.115,2.115,0,0,1,2.135-2.3,2.125,2.125,0,0,1,2.087,2.277v11.978a2.091,2.091,0,0,1-2.087,2.253,2.11,2.11,0,0,1-2.135-2.324Z" transform="translate(4153.318 -2445.783)" fill="#f9ba1b"/>
    <path id="패스_13225" data-name="패스 13225" d="M-1474.078,840.983c0-1.684.047-3.25-.024-4.815-.047-.807.4-.688.9-.688.474,0,.9-.095.9.688-.047,4.056-.024,8.135,0,12.191,0,.617-.142.83-.783.807-.569-.024-1.115.024-.925-.83a1.575,1.575,0,0,0-.047-.4,4.106,4.106,0,0,1-3.985,1.4,4.091,4.091,0,0,1-2.538-1.589,5.318,5.318,0,0,1,.5-7.139C-1478.347,838.991-1476.047,839.109-1474.078,840.983Zm.024,3.463a3.078,3.078,0,0,0-2.823-3.344,3.085,3.085,0,0,0-3.131,3.25,3.117,3.117,0,0,0,2.894,3.487C-1475.288,847.862-1474.054,846.486-1474.054,844.446Z" transform="translate(3778.335 -2475.286)" fill="#333"/>
    <path id="패스_13226" data-name="패스 13226" d="M-1726.824,862.281a5.056,5.056,0,0,1-5.076-5.028,5.041,5.041,0,0,1,5.052-5.052,5.026,5.026,0,0,1,5.076,5.028A5.026,5.026,0,0,1-1726.824,862.281ZM-1724,857.2a2.848,2.848,0,0,0-2.894-3.012,2.852,2.852,0,0,0-2.775,3.012,2.965,2.965,0,0,0,2.846,3.107A2.946,2.946,0,0,0-1724,857.2Z" transform="translate(3969.176 -2488.044)" fill="#333"/>
    <path id="패스_13227" data-name="패스 13227" d="M-1615.125,860.015a5.02,5.02,0,0,1-5.74,1.992,5.112,5.112,0,0,1-3.439-4.934,4.91,4.91,0,0,1,3.51-4.744,4.623,4.623,0,0,1,5.621,3.083c.214.617-.19.64-.522.783-1.8.735-3.582,1.494-5.384,2.206-.593.237-.617.474-.237.949a2.606,2.606,0,0,0,3.7.285c.83-.83,1.352-.546,2.04.024C-1615.433,859.8-1615.267,859.9-1615.125,860.015Zm-6.926-2.989c1.376-.569,2.609-1.115,3.866-1.565.806-.308.522-.617.071-.949a2.279,2.279,0,0,0-2.443-.119A2.691,2.691,0,0,0-1622.05,857.027Z" transform="translate(3887.101 -2488.009)" fill="#333"/>
    <path id="패스_13228" data-name="패스 13228" d="M-1768.319,857.275a4.977,4.977,0,0,1-5.076,5,4.992,4.992,0,0,1-5-5.076,4.962,4.962,0,0,1,5.076-5A4.977,4.977,0,0,1-1768.319,857.275Zm-7.9,0a2.973,2.973,0,0,0,2.917,3.036,3.01,3.01,0,0,0,2.823-3.06,2.93,2.93,0,0,0-2.894-3.06A2.886,2.886,0,0,0-1776.218,857.275Z" transform="translate(4004.646 -2488.043)" fill="#333"/>
    <path id="패스_13229" data-name="패스 13229" d="M-1564.456,842.179c0-1.992.024-3.961-.024-5.953,0-.593.118-.854.783-.83,1.375.047,2.751,0,4.127.024a4.092,4.092,0,0,1,4.08,3.985,4.146,4.146,0,0,1-4.1,4.08,17.1,17.1,0,0,1-2.206,0c-.807-.095-.949.261-.925.972.047,1.3-.048,2.633.024,3.937.047.807-.427.688-.9.688s-.925.119-.9-.688C-1564.408,846.33-1564.456,844.242-1564.456,842.179Zm1.731-2.728c0,.617.024,1.21,0,1.826-.024.474.166.617.617.593.9-.024,1.779.024,2.68-.047a2.3,2.3,0,0,0,2.135-2.372c-.024-1.494-1.115-2.372-2.965-2.372C-1562.724,837.032-1562.724,837.032-1562.724,839.451Z" transform="translate(3841.484 -2475.224)" fill="#333"/>
    <path id="패스_13230" data-name="패스 13230" d="M-1389.448,860.864a3.658,3.658,0,0,1-3.392,1.565,3.148,3.148,0,0,1-3.178-2.846,3.176,3.176,0,0,1,2.87-3.368,6.215,6.215,0,0,1,3.653.356,1.941,1.941,0,0,0-1.233-2.23,2.689,2.689,0,0,0-3.06.664c-.285.332-1.589.19-1.755-.214-.095-.214.071-.356.166-.522a4.332,4.332,0,0,1,4.673-1.613,3.617,3.617,0,0,1,2.965,3.51c.048,1.755,0,3.51.048,5.266,0,.546-.071.854-.712.759-.474-.071-1.091.142-.949-.712A5.714,5.714,0,0,0-1389.448,860.864Zm-2.775-.047a3.04,3.04,0,0,0,2.7-1.921c.19-.569.095-.972-.545-1.162a4.969,4.969,0,0,0-2.633-.095,1.8,1.8,0,0,0-1.494,1.921A1.767,1.767,0,0,0-1392.224,860.817Z" transform="translate(3712.966 -2488.289)" fill="#333"/>
    <path id="패스_13231" data-name="패스 13231" d="M-1937.535,831.033c0,1.186.024,2.372,0,3.558a2.142,2.142,0,0,1-2.063,2.3,2.146,2.146,0,0,1-2.158-2.3c-.024-2.372-.024-4.744,0-7.092a2.128,2.128,0,0,1,2.064-2.3,2.146,2.146,0,0,1,2.158,2.3C-1937.511,828.685-1937.535,829.847-1937.535,831.033Z" transform="translate(4129.271 -2467.447)" fill="#37a853"/>
    <path id="패스_13232" data-name="패스 13232" d="M-2004.934,794.63c0-1.186-.024-2.372,0-3.534a2.132,2.132,0,0,1,2.158-2.3,2.128,2.128,0,0,1,2.063,2.3c.024,2.372.024,4.72,0,7.092a2.12,2.12,0,0,1-2.158,2.3,2.142,2.142,0,0,1-2.063-2.3Z" transform="translate(4177.457 -2439.676)" fill="#ea4636"/>
    <path id="패스_13233" data-name="패스 13233" d="M-1521.286,852.5a4.7,4.7,0,0,1,4.791,4.981,4.709,4.709,0,0,1-4.839,4.934,4.783,4.783,0,0,1-4.767-4.957A4.751,4.751,0,0,1-1521.286,852.5Zm3.036,4.934a3.143,3.143,0,0,0-3.036-3.368,3.187,3.187,0,0,0-3.083,3.344,3.122,3.122,0,0,0,3.107,3.392A3.07,3.07,0,0,0-1518.25,857.434Z" transform="translate(3812.189 -2488.273)" fill="#333"/>
    <path id="패스_13234" data-name="패스 13234" d="M-1288.529,852.479a3.747,3.747,0,0,1,3.25,1.352c.166.214.783.593.19.878-.4.19-.854.878-1.47.166a2.512,2.512,0,0,0-2.941-.641c-.451.19-.783.474-.759.973a.947.947,0,0,0,.806.949c.949.261,1.921.474,2.846.783a2.62,2.62,0,0,1,1.826,3.463,2.938,2.938,0,0,1-1.138,1.376,4.49,4.49,0,0,1-6.072-1.328c-.142-.237-.617-.617,0-.806.451-.142.925-.9,1.447-.047a2.551,2.551,0,0,0,2.8,1.21c.688-.095,1.257-.38,1.352-1.139.095-.783-.474-1.138-1.139-1.328a12.1,12.1,0,0,1-3.25-1.044,2.344,2.344,0,0,1-.024-4.151A3.549,3.549,0,0,1-1288.529,852.479Z" transform="translate(3633.844 -2488.252)" fill="#333"/>
    <path id="패스_13235" data-name="패스 13235" d="M-1352.216,852.5a3.673,3.673,0,0,1,3.178,1.447c.142.214.617.569.142.759-.427.166-.878.9-1.471.213a2.5,2.5,0,0,0-2.846-.712c-.474.166-.878.4-.878,1a.98.98,0,0,0,.854,1c.735.214,1.494.38,2.229.569a4.141,4.141,0,0,1,1.637.759,2.609,2.609,0,0,1-.308,4.2,4.5,4.5,0,0,1-6.167-1.281c-.142-.237-.64-.617-.024-.807.451-.142.925-.925,1.447-.071a2.518,2.518,0,0,0,2.8,1.21c.688-.095,1.281-.38,1.376-1.115.095-.783-.5-1.138-1.138-1.328a10.987,10.987,0,0,1-3.416-1.162,2.317,2.317,0,0,1-.071-3.89,3.731,3.731,0,0,1,2.04-.783Z" transform="translate(3682.564 -2488.273)" fill="#333"/>
    <path id="패스_13236" data-name="패스 13236" d="M-1427.784,855.1a10.165,10.165,0,0,0-1.044.474c-.332.166-.522.19-.759-.214a2.484,2.484,0,0,0-2.751-1.281,2.883,2.883,0,0,0-2.4,2.206c-.759,2.4.83,4.649,3.155,4.483a2.423,2.423,0,0,0,2.063-1.21c.546-.925,1.044-.119,1.494.071.688.261.047.64-.095.878a4.472,4.472,0,0,1-4.981,1.779,4.759,4.759,0,0,1-3.463-3.937c-.332-2.846,1.02-5.052,3.487-5.716A4.213,4.213,0,0,1-1427.784,855.1Z" transform="translate(3743.924 -2488.213)" fill="#333"/>
    <path id="패스_13237" data-name="패스 13237" d="M-1319.619,848.758c0-.711-.024-1.4,0-2.111.047-.569-.095-.854-.712-.759-.64.095-1-.024-.973-.83.024-.735.332-.878.925-.783.664.095.83-.19.759-.807-.047-.356.047-.711-.024-1.044-.142-.854.19-1.091,1.044-1.044.617.024.783.237.712.783a3.172,3.172,0,0,0,0,.474c0,1.589,0,1.637,1.565,1.613.712-.024.735.285.759.854.024.617-.142.83-.783.807-1.518-.024-1.518.024-1.518,1.565,0,1.044-.024,2.111,0,3.155.024,1.186.427,1.613,1.565,1.518.925-.071.83.688.949,1.138.19.664-.5.427-.759.474a2.78,2.78,0,0,1-3.487-2.989C-1319.619,850.086-1319.619,849.422-1319.619,848.758Z" transform="translate(3655.969 -2479.787)" fill="#333"/>
    <path id="패스_13238" data-name="패스 13238" d="M-1638.181,838.039c0-2.206.024-4.412-.024-6.617,0-.617.142-.878.783-.783a3.424,3.424,0,0,0,.854,0c.4-.024.569.071.569.522-.024,4.6,0,9.2,0,13.8,0,.379-.119.522-.5.5a4.061,4.061,0,0,0-.759,0c-.735.095-.972-.142-.949-.9C-1638.134,842.38-1638.181,840.221-1638.181,838.039Z" transform="translate(3897.706 -2471.583)" fill="#333"/>
    <path id="패스_13239" data-name="패스 13239" d="M-1969.116,763.6c0,.451.024.9,0,1.352a2.117,2.117,0,0,1-2.087,1.969,2.1,2.1,0,0,1-2.111-1.921,25.233,25.233,0,0,1,0-2.68,2.087,2.087,0,0,1,2.135-1.921,2.1,2.1,0,0,1,2.064,1.969C-1969.092,762.772-1969.116,763.2-1969.116,763.6Z" transform="translate(4153.356 -2418.018)" fill="#f9ba1b"/>
    <path id="패스_13240" data-name="패스 13240" d="M-1973.334,878.5c0-.451-.024-.9,0-1.352a2.118,2.118,0,0,1,2.111-1.945,2.1,2.1,0,0,1,2.087,1.969,23.538,23.538,0,0,1,0,2.585,2.1,2.1,0,0,1-2.063,1.992,2.1,2.1,0,0,1-2.135-2.016C-1973.358,879.327-1973.334,878.924-1973.334,878.5Z" transform="translate(4153.353 -2505.589)" fill="#f9ba1b"/>
    <path id="패스_13241" data-name="패스 13241" d="M-2000.7,850.172a12.359,12.359,0,0,1,0,1.328,2.134,2.134,0,0,1-2.135,1.921,2.1,2.1,0,0,1-2.04-1.921,16.82,16.82,0,0,1,0-2.68,2.1,2.1,0,0,1,2.135-1.921,2.119,2.119,0,0,1,2.04,1.921A12.806,12.806,0,0,1-2000.7,850.172Z" transform="translate(4177.442 -2484)" fill="#ea4636"/>
    <path id="패스_13242" data-name="패스 13242" d="M-1937.516,792.073c0,.427.024.83,0,1.257a2.1,2.1,0,0,1-2.087,1.969,2.1,2.1,0,0,1-2.111-1.945,23.418,23.418,0,0,1,0-2.585,2.082,2.082,0,0,1,2.087-1.969,2.118,2.118,0,0,1,2.111,1.945C-1937.492,791.172-1937.516,791.622-1937.516,792.073Z" transform="translate(4129.252 -2439.682)" fill="#37a853"/>
    <path id="패스_13243" data-name="패스 13243" d="M-1741.161,778.551c-.617,0-1.209.024-1.826,0-.593-.047-.616.237-.522.688a2.133,2.133,0,0,0,3.463,1.21c.38-.285.664-.546,1.02-.071.379.5-.19.664-.4.854a3.314,3.314,0,0,1-5.313-1.8c-.545-2.514.569-4.6,2.633-4.957a3.1,3.1,0,0,1,3.416,3.771c-.095.356-.332.332-.593.332C-1739.881,778.551-1740.521,778.551-1741.161,778.551Zm-.593-1h1.352c.356,0,.546-.095.474-.5a1.732,1.732,0,0,0-1.138-1.518,1.7,1.7,0,0,0-1.969.617c-.261.379-.569.83-.427,1.21s.688.119,1.044.166A3.114,3.114,0,0,0-1741.754,777.555Z" transform="translate(3979.078 -2428.722)" fill="#999"/>
    <path id="패스_13244" data-name="패스 13244" d="M-2031.44,821.2c0,.427.024.83,0,1.257a2.133,2.133,0,0,1-2.087,1.969,2.082,2.082,0,0,1-2.087-1.969,21.844,21.844,0,0,1,0-2.49,2.105,2.105,0,0,1,2.111-2.064,2.121,2.121,0,0,1,2.111,2.064c0,.4-.024.806-.047,1.233Z" transform="translate(4200.88 -2461.88)" fill="#3769b3"/>
    <path id="패스_13245" data-name="패스 13245" d="M-1910.934,821.124c0-.4-.024-.83,0-1.233a2.115,2.115,0,0,1,2.063-1.992,2.12,2.12,0,0,1,2.135,2.04,21.844,21.844,0,0,1,0,2.49,2.12,2.12,0,0,1-2.063,2.016,2.136,2.136,0,0,1-2.135-2.04C-1910.958,821.954-1910.934,821.551-1910.934,821.124Z" transform="translate(4105.753 -2461.878)" fill="#577fc0"/>
    <path id="패스_13246" data-name="패스 13246" d="M-1663,778.162c0-2.633,1.921-4.293,4.246-3.676a3.461,3.461,0,0,1,.451.166c1.613.735,2.348,2.823,1.755,4.886a3.187,3.187,0,0,1-3.582,2.348A3.43,3.43,0,0,1-1663,778.162Zm5.36.024c.024-1.66-.712-2.728-1.945-2.8-1.376-.047-2.182,1.044-2.135,2.87.047,1.779.949,2.751,2.324,2.585C-1658.3,780.724-1657.664,779.752-1657.641,778.186Z" transform="translate(3916.619 -2428.665)" fill="#999"/>
    <path id="패스_13247" data-name="패스 13247" d="M-1625.865,775.386a3.743,3.743,0,0,1,1.992-1.091,2.058,2.058,0,0,1,2.562,1.826,37.582,37.582,0,0,1,.119,5.171c.024.522-.356.4-.664.427-.451.047-.64-.119-.617-.593.024-1.352.024-2.68,0-4.032-.024-1.328-.427-1.755-1.494-1.755a1.7,1.7,0,0,0-1.755,1.826v3.653c0,.4.19.9-.593.9-.735.024-.641-.4-.641-.854V775.2c0-.308-.261-.806.427-.83C-1625.984,774.39-1625.58,774.414-1625.865,775.386Z" transform="translate(3889.16 -2428.592)" fill="#999"/>
    <path id="패스_13248" data-name="패스 13248" d="M-1709.826,775.334a3.984,3.984,0,0,1,1.613-.9c1.589-.332,2.751.332,2.894,1.945.142,1.66.071,3.321.095,4.981,0,.522-.356.427-.664.451-.427.047-.641-.095-.641-.569.024-1.352.024-2.68,0-4.032-.024-1.328-.427-1.779-1.471-1.755a1.688,1.688,0,0,0-1.755,1.826v3.842c0,.427-.024.712-.593.712-.593,0-.664-.261-.664-.735.024-1.945,0-3.89.024-5.859,0-.308-.19-.712.427-.759C-1710.016,774.432-1709.708,774.551-1709.826,775.334Z" transform="translate(3953.245 -2428.659)" fill="#999"/>
    <path id="패스_13249" data-name="패스 13249" d="M-1794.137,774.3a2.692,2.692,0,0,1,2.419,1.3c.142.285.474.735.071.9-.356.142-.9.308-1.21-.356-.379-.854-1.186-.878-1.969-.712a.989.989,0,0,0-.854.925c-.047.5.285.759.712.9.688.237,1.4.4,2.087.64a1.888,1.888,0,0,1,1.471,1.9,2,2,0,0,1-1.542,1.874,3.36,3.36,0,0,1-3.937-1.115c-.166-.308-.475-.783-.095-1a.76.76,0,0,1,1.162.4,1.908,1.908,0,0,0,2.562.688.9.9,0,0,0,.569-.806.861.861,0,0,0-.593-.9c-.522-.213-1.091-.356-1.637-.522-1.589-.474-2.158-1.091-2.016-2.23A2.6,2.6,0,0,1-1794.137,774.3Z" transform="translate(4018.96 -2428.621)" fill="#999"/>
    <path id="패스_13250" data-name="패스 13250" d="M-1843,769.01v-3.937c0-.427-.237-.949.617-.972.878,0,.688.546.688,1.02,0,2.277.024,4.53,0,6.807-.024.712.142,1.044.949.973,1.044-.071,2.111,0,3.155-.024.38,0,.593.095.593.522s-.142.546-.546.546c-1.637-.024-3.249-.024-4.886,0-.522,0-.545-.261-.545-.64C-1843,771.88-1843,770.457-1843,769.01Z" transform="translate(4053.945 -2420.84)" fill="#999"/>
    <path id="패스_13251" data-name="패스 13251" d="M-1766.948,772.642c0-.474-.024-.972,0-1.447.048-.664.024-1.233-.9-1.067-.332.047-.427-.142-.451-.451,0-.379.142-.569.5-.5.807.142.9-.308.83-.925-.048-.474-.048-.854.664-.854.64,0,.664.356.617.806-.071.664.048,1.139.878.973.379-.071.474.142.5.5,0,.4-.213.522-.546.451-.806-.142-.854.308-.83.925.047,1.186.024,2.372.024,3.558,0,.569.213.949.83.9.308-.024.545-.024.545.427,0,.4-.142.546-.522.593a1.543,1.543,0,0,1-2.04-1.423c-.119-.806-.095-1.66-.142-2.49C-1766.972,772.642-1766.972,772.642-1766.948,772.642Z" transform="translate(3996.942 -2423.357)" fill="#999"/>
    <path id="패스_13252" data-name="패스 13252" d="M-1809.667,778.6v2.965c0,.38,0,.688-.522.664-.427-.024-.712-.024-.712-.593q.036-3.06,0-6.119c0-.546.261-.593.688-.617.522-.024.545.261.545.64Z" transform="translate(4029.438 -2429.074)" fill="#999"/>
    <path id="패스_13253" data-name="패스 13253" d="M-1810.664,765.176a.612.612,0,0,1-.64-.688.661.661,0,0,1,.735-.688.654.654,0,0,1,.688.664C-1809.857,764.891-1810.094,765.152-1810.664,765.176Z" transform="translate(4029.747 -2420.611)" fill="#999"/>
  </g>
</svg>
