<svg xmlns="http://www.w3.org/2000/svg" width="130" height="50" viewBox="0 0 130 50">
  <g id="그룹_133" data-name="그룹 133" transform="translate(-2617 1664)">
    <g id="사각형_415" data-name="사각형 415" transform="translate(2617 -1664)" fill="none" stroke="#e5e5e5" stroke-width="1">
      <rect width="130" height="50" rx="4" stroke="none"/>
      <rect x="0.5" y="0.5" width="129" height="49" rx="3.5" fill="none"/>
    </g>
    <path id="패스_13137" data-name="패스 13137" d="M-948.162,765.3a17.064,17.064,0,0,1-17.232,17.178A17.1,17.1,0,0,1-982.5,765.335a17.214,17.214,0,0,1,17.74-17.269A17.214,17.214,0,0,1-948.162,765.3Zm-19.718-8.326c-.472.018-1.233.073-2,.091a26.9,26.9,0,0,0-6.24,1.052,1.679,1.679,0,0,0-1.179,2.159,1.717,1.717,0,0,0,2.122,1.143,28.437,28.437,0,0,1,8.489-.907,35.2,35.2,0,0,1,5.514.653,21.011,21.011,0,0,1,5.932,2.177,1.692,1.692,0,0,0,2.485-.6c.544-.961.218-1.868-.925-2.485A29.994,29.994,0,0,0-967.88,756.972Zm-8.272,8.453a1.192,1.192,0,0,0,.308.889,1.685,1.685,0,0,0,1.8.363,23.438,23.438,0,0,1,11.591-.054,20.4,20.4,0,0,1,5.188,2.068,1.427,1.427,0,0,0,2.086-.453,1.432,1.432,0,0,0-.617-2.05,6.12,6.12,0,0,0-.744-.435,24.678,24.678,0,0,0-12.589-2.775,22.749,22.749,0,0,0-5.932.943A1.336,1.336,0,0,0-976.151,765.425Zm8.108,3.193a25.675,25.675,0,0,0-6.24.726c-.907.181-1.324.726-1.161,1.487a1.307,1.307,0,0,0,1.651.871c.526-.091,1.052-.236,1.578-.326a22.273,22.273,0,0,1,7.6-.091,24.83,24.83,0,0,1,5.387,1.941,2.235,2.235,0,0,0,1.034.254,1.106,1.106,0,0,0,1-.689.939.939,0,0,0-.163-1.106,3.457,3.457,0,0,0-1-.78A19.724,19.724,0,0,0-968.043,768.618Z" transform="translate(3610.158 -2403.85)" fill="#1ed760"/>
    <path id="패스_13138" data-name="패스 13138" d="M-463.961,817.331c.871-2.449,1.705-4.789,2.5-7.147.163-.472.363-.689.889-.653a11.162,11.162,0,0,0,1.741,0c.58-.036.707.127.49.671-1.161,2.939-2.267,5.877-3.428,8.816a26.453,26.453,0,0,1-1.524,3.628,4.162,4.162,0,0,1-5.841,1.288.371.371,0,0,1-.145-.562c.218-.453.435-.925.635-1.4.163-.381.363-.435.726-.254a3.445,3.445,0,0,0,.961.272,1.183,1.183,0,0,0,1.27-1.651c-1.07-2.594-2.177-5.17-3.229-7.764a.626.626,0,0,0-.726-.472c-1.85,0-1.85,0-1.85,1.85,0,2.177-.018,4.335.018,6.512,0,.508-.127.689-.635.635a8.748,8.748,0,0,0-1.542,0c-.6.054-.816-.127-.8-.762.036-2.521,0-5.061.036-7.582,0-.544-.163-.726-.671-.635-.635.109-.853-.163-.78-.78a5.447,5.447,0,0,0,0-1.215c-.036-.472.163-.671.617-.6.617.091.834-.073.834-.762,0-2.612,1.723-3.991,4.462-3.628,1.433.2,1.433.2,1.433,1.669,0,1.143,0,1.143-1.143.961-1.2-.2-1.778.2-1.85,1.215-.018.4.054.58.526.562,1.125-.036,2.231.018,3.356-.018a.771.771,0,0,1,.871.6c.871,2.3,1.76,4.607,2.648,6.911C-464.106,817.1-464.07,817.15-463.961,817.331Z" transform="translate(3195.43 -2450.532)" fill="#333"/>
    <path id="패스_13139" data-name="패스 13139" d="M-682.094,838.692c0,1.379-.036,2.63.018,3.882.036.671-.2.871-.834.8a7.956,7.956,0,0,0-1.469,0c-.562.054-.726-.163-.726-.726.018-2.866.018-5.732.018-8.6,0-1.633.018-3.265-.018-4.9-.018-.6.2-.8.78-.744a9.939,9.939,0,0,0,1.469,0c.562-.054.853.127.78.744a3.485,3.485,0,0,0,0,.435c.218.127.272-.054.345-.127a5.043,5.043,0,0,1,7.655,1.125,6.737,6.737,0,0,1,0,7.238A5.15,5.15,0,0,1-682.094,838.692Zm5.968-4.462a3.145,3.145,0,0,0-2.721-3.392,2.985,2.985,0,0,0-3.193,2.358,3.509,3.509,0,0,0,1.669,4.118C-678.266,838.311-676.126,836.751-676.126,834.23Z" transform="translate(3366.709 -2469.426)" fill="#333"/>
    <path id="패스_13140" data-name="패스 13140" d="M-749.641,808.2a8.839,8.839,0,0,1,5.17,1.614c.417.29.508.562.181.98a10.66,10.66,0,0,0-.925,1.306c-.236.4-.472.363-.8.127a6.563,6.563,0,0,0-3.12-1.27,3.631,3.631,0,0,0-1.705.2,1.466,1.466,0,0,0-.979,1.324,1.335,1.335,0,0,0,.834,1.342,11.93,11.93,0,0,0,2.467.816,12.9,12.9,0,0,1,2.7.943,3.747,3.747,0,0,1,2.267,3.573,4.155,4.155,0,0,1-2.267,3.972,8.037,8.037,0,0,1-6.44.218,9.7,9.7,0,0,1-2.739-1.524c-.4-.308-.58-.581-.145-1.016.472-.472.8-1.233,1.36-1.433s1.016.617,1.578.925a6.079,6.079,0,0,0,3.918.816c1.215-.181,1.887-1.034,1.633-2.068a1.542,1.542,0,0,0-1.07-1.016,14.625,14.625,0,0,0-2.3-.689,13.743,13.743,0,0,1-2.394-.8,3.735,3.735,0,0,1-2.431-3.247,4.262,4.262,0,0,1,1.977-4.19A5.55,5.55,0,0,1-749.641,808.2Z" transform="translate(3424.244 -2453.082)" fill="#333"/>
    <path id="패스_13141" data-name="패스 13141" d="M-608.687,840.28a6,6,0,0,1-6.113-6.04,6.06,6.06,0,0,1,6.186-6.04,6.04,6.04,0,0,1,6.149,6.095A6.024,6.024,0,0,1-608.687,840.28Zm.073-9.414a3.2,3.2,0,0,0-3.211,3.319,3.358,3.358,0,0,0,3.247,3.483,3.226,3.226,0,0,0,3.174-3.374A3.292,3.292,0,0,0-608.614,830.866Z" transform="translate(3309.156 -2469.454)" fill="#333"/>
    <path id="패스_13142" data-name="패스 13142" d="M-544.367,821.5c0-.943-.018-1.886,0-2.83.018-.4-.091-.544-.508-.544-.925.018-.925-.018-.925-.943v-.472c0-1.07,0-1.07,1.07-1.161.29-.018.381-.127.381-.4-.018-.689.018-1.4-.018-2.086-.018-.49.163-.635.635-.6a13.1,13.1,0,0,0,1.687,0c.562-.054.708.2.671.707-.036.581.018,1.161-.018,1.741-.036.472.073.689.617.635.617-.054,1.252,0,1.887-.018.381-.018.526.145.508.526-.018.544-.018,1.07,0,1.614.018.363-.127.472-.472.472-.671-.018-1.342.018-2.013-.018-.345-.018-.526.036-.508.453.018,1.614,0,3.229.018,4.843.018.925.435,1.288,1.36,1.2a3.415,3.415,0,0,0,.6-.091c1-.254,1-.254,1,.816v.127c0,1.324-.2,1.56-1.506,1.741a6.6,6.6,0,0,1-1.342.073,2.9,2.9,0,0,1-3.084-3.138C-544.385,823.278-544.367,822.39-544.367,821.5Z" transform="translate(3252.673 -2456.57)" fill="#333"/>
    <path id="패스_13143" data-name="패스 13143" d="M-495.63,835.3c0,1.723-.018,3.446,0,5.17,0,.453-.127.653-.6.617-.6-.036-1.215-.018-1.814,0-.381.018-.58-.091-.562-.526.018-3.519.018-7.02,0-10.539,0-.417.181-.544.562-.526.6.018,1.215.036,1.814,0,.49-.018.617.181.6.635C-495.648,831.851-495.63,833.574-495.63,835.3Z" transform="translate(3214.04 -2470.511)" fill="#333"/>
    <path id="패스_13151" data-name="패스 13151" d="M-498.832,801.5a1.839,1.839,0,0,1,1.868,1.85,1.832,1.832,0,0,1-1.886,1.85,1.839,1.839,0,0,1-1.85-1.814A1.87,1.87,0,0,1-498.832,801.5Z" transform="translate(3215.753 -2447.598)" fill="#1e1a1a"/>
    <g id="그룹_132" data-name="그룹 132" transform="translate(12 50.01)">
      <path id="패스_13292" data-name="패스 13292" d="M-1235.174,493.738h-1.567c-.186,0-.239.053-.212.239a1.473,1.473,0,0,0,2.23,1.168.961.961,0,0,0,.4-.4.221.221,0,0,1,.292-.159h.372c.266,0,.292.027.186.266a1.932,1.932,0,0,1-1.487,1.168,2.195,2.195,0,0,1-2.5-1.009,3.059,3.059,0,0,1,.053-3.053,2.176,2.176,0,0,1,2.39-.929,2.092,2.092,0,0,1,1.62,1.832c.027.212.027.425.053.664,0,.212-.08.266-.266.239C-1234.138,493.738-1234.669,493.738-1235.174,493.738Zm-.425-.664h1.221c.106,0,.186,0,.159-.133a1.447,1.447,0,0,0-.345-.823,1.26,1.26,0,0,0-1.328-.372,1.336,1.336,0,0,0-.982,1.115c-.026.186,0,.239.186.212Z" transform="translate(3910.528 -2195.404)" fill="#999"/>
      <path id="패스_13289" data-name="패스 13289" d="M-1183.621,493.6a2.412,2.412,0,0,1-.982,2.018,2.3,2.3,0,0,1-3.611-1.646,3.368,3.368,0,0,1,.159-1.7,2.115,2.115,0,0,1,2.23-1.381C-1184.444,490.968-1183.621,491.924-1183.621,493.6Zm-3.8-.133a2,2,0,0,0,.053.558,1.407,1.407,0,0,0,1.221,1.221,1.344,1.344,0,0,0,1.513-.982,2.683,2.683,0,0,0,0-1.646,1.311,1.311,0,0,0-1.328-.982,1.335,1.335,0,0,0-1.354,1.009A2.8,2.8,0,0,0-1187.418,493.464Z" transform="translate(3874.109 -2195.342)" fill="#999"/>
      <path id="패스_13290" data-name="패스 13290" d="M-1165.95,491.645a1.87,1.87,0,0,1,2.044-.77,1.556,1.556,0,0,1,1.275,1.646c.026,1.062,0,2.124,0,3.186,0,.133-.053.159-.186.186-.664.027-.664.027-.664-.637v-2.39a3.246,3.246,0,0,0-.053-.5.992.992,0,0,0-1.036-.8,1.18,1.18,0,0,0-1.275.823,1.786,1.786,0,0,0-.106.637v2.6c0,.186-.053.239-.239.239-.611,0-.611,0-.611-.611v-4.169c0-.186.026-.239.239-.239.558,0,.558,0,.558.558A.486.486,0,0,1-1165.95,491.645Z" transform="translate(3858.351 -2195.302)" fill="#999"/>
      <path id="패스_13291" data-name="패스 13291" d="M-1216,491.858a1.55,1.55,0,0,1,1.062-.823,2.274,2.274,0,0,1,1.036,0,1.614,1.614,0,0,1,1.248,1.62c.027,1.062,0,2.151,0,3.213,0,.133-.053.159-.186.186-.664.027-.664.027-.664-.637V493a3.246,3.246,0,0,0-.053-.5.879.879,0,0,0-.849-.743,1.271,1.271,0,0,0-1.328.558,1.693,1.693,0,0,0-.212.956v2.549c0,.186-.053.239-.239.239-.611,0-.611,0-.611-.611v-4.169c0-.186.053-.239.239-.239.558,0,.558,0,.558.531Z" transform="translate(3895.075 -2195.409)" fill="#999"/>
      <path id="패스_13294" data-name="패스 13294" d="M-1267.34,494.6h.239c.106,0,.159.026.186.133a.792.792,0,0,0,.664.584,1.9,1.9,0,0,0,1.089-.053.629.629,0,0,0,.452-.611.548.548,0,0,0-.452-.558c-.372-.133-.77-.212-1.168-.319a4.133,4.133,0,0,1-.611-.212,1.255,1.255,0,0,1-.159-2.2,2.329,2.329,0,0,1,2.575.027,1.422,1.422,0,0,1,.557.85c.026.133,0,.212-.159.186h-.212c-.239,0-.451.027-.531-.292-.026-.159-.186-.239-.319-.319a1.467,1.467,0,0,0-1.248,0,.608.608,0,0,0-.4.584.566.566,0,0,0,.4.531,7.358,7.358,0,0,0,1.089.319,7.327,7.327,0,0,1,.717.212,1.241,1.241,0,0,1,.292,2.151,2.31,2.31,0,0,1-1.7.451,2.064,2.064,0,0,1-1.168-.4,1.485,1.485,0,0,1-.557-.823c-.053-.186-.027-.266.186-.239Z" transform="translate(3932.525 -2195.418)" fill="#999"/>
      <path id="패스_13297" data-name="패스 13297" d="M-1295.7,487.278v-3.239c0-.186.053-.239.239-.239.637,0,.637,0,.637.637v5.31c0,.186.053.239.239.239h2.841c.213,0,.266.08.266.266,0,.531,0,.531-.5.531h-3.478c-.186,0-.239-.053-.239-.239Z" transform="translate(3953.025 -2190.139)" fill="#999"/>
      <path id="패스_13293" data-name="패스 13293" d="M-1249.663,490.036c0-.451-.026-.9,0-1.354,0-.239-.08-.319-.292-.292h-.106c-.4,0-.345.053-.345-.345,0-.372,0-.372.372-.372s.372,0,.372-.372v-.664c0-.133.053-.159.159-.159.69-.027.69-.027.69.637,0,.558,0,.558.557.558.4,0,.4,0,.4.4,0,.239-.053.345-.292.319-.212-.027-.5-.106-.637.027s-.053.425-.053.637v2.257c0,.531.186.717.717.69.212-.027.266.027.266.239-.026.478,0,.478-.478.478-.982,0-1.354-.345-1.354-1.328C-1249.663,490.938-1249.663,490.487-1249.663,490.036Z" transform="translate(3919.76 -2192.1)" fill="#999"/>
      <path id="패스_13295" data-name="패스 13295" d="M-1275.5,493.522v-2.283c0-.212.053-.239.239-.239.611,0,.611,0,.611.611v4.142c0,.212-.053.266-.266.266-.584,0-.584,0-.584-.558Z" transform="translate(3938.189 -2195.427)" fill="#999"/>
      <path id="패스_13296" data-name="패스 13296" d="M-1275.369,485.036a.528.528,0,0,1-.531-.5.533.533,0,0,1,.531-.531.528.528,0,0,1,.531.5A.533.533,0,0,1-1275.369,485.036Z" transform="translate(3938.483 -2190.286)" fill="#999"/>
    </g>
  </g>
</svg>
