<svg xmlns="http://www.w3.org/2000/svg" width="14.716" height="17.23" viewBox="0 0 14.716 17.23">
  <g id="paypal" transform="translate(-37.352)">
    <g id="그룹_3" data-name="그룹 3" transform="translate(37.352)">
      <g id="그룹_2" data-name="그룹 2">
        <path id="패스_9404" data-name="패스 9404" d="M49.883,1.3C49.08.39,47.626,0,45.766,0h-5.4a.772.772,0,0,0-.763.646l-2.247,14.14a.461.461,0,0,0,.458.531h3.332l.837-5.266-.026.166a.769.769,0,0,1,.761-.646H44.3c3.111,0,5.546-1.253,6.258-4.879.022-.108.055-.314.055-.314A3.426,3.426,0,0,0,49.883,1.3Z" transform="translate(-37.352 0)" fill="#ff5300"/>
      </g>
    </g>
    <g id="그룹_5" data-name="그룹 5" transform="translate(41.824 5.064)">
      <g id="그룹_4" data-name="그룹 4" transform="translate(0)">
        <path id="패스_9405" data-name="패스 9405" d="M179.86,150.5c-.773,3.57-3.24,5.459-7.156,5.459h-1.419l-1.06,6.707h2.3a.674.674,0,0,0,.668-.566l.027-.142.53-3.329.034-.183a.674.674,0,0,1,.667-.566h.421c2.721,0,4.851-1.1,5.474-4.268A3.69,3.69,0,0,0,179.86,150.5Z" transform="translate(-170.225 -150.496)" fill="#ff5300"/>
      </g>
    </g>
  </g>
</svg>
