<svg xmlns="http://www.w3.org/2000/svg" xmlns:xlink="http://www.w3.org/1999/xlink" width="208" height="50" viewBox="0 0 208 50">
  <defs>
    <linearGradient id="linear-gradient" x1="0.5" x2="0.5" y2="1" gradientUnits="objectBoundingBox">
      <stop offset="0" stop-color="#f251fe"/>
      <stop offset="1" stop-color="#842bc1"/>
    </linearGradient>
  </defs>
  <g id="그룹_134" data-name="그룹 134" transform="translate(-2383 1664)">
    <g id="사각형_413" data-name="사각형 413" transform="translate(2383 -1664)" fill="none" stroke="#e5e5e5" stroke-width="1">
      <rect width="208" height="50" rx="4" stroke="none"/>
      <rect x="0.5" y="0.5" width="207" height="49" rx="3.5" fill="none"/>
    </g>
    <path id="패스_13173" data-name="패스 13173" d="M-1140.7,534.966v-7.052c0-.265.076-.341.341-.341,1.782,0,3.526-.038,5.308,0a4.677,4.677,0,0,1,4.7,5.536,4.516,4.516,0,0,1-3.716,4.095,5.844,5.844,0,0,1-1.4.114h-2.654c-.227,0-.265.076-.265.265v4.4c0,.265-.038.379-.341.379a11.685,11.685,0,0,0-1.63,0c-.265,0-.341-.076-.341-.341Zm3.943.417h1.4a2.7,2.7,0,0,0,2.54-1.744,3.665,3.665,0,0,0,.19-1.289,2.618,2.618,0,0,0-2.464-2.73,26.329,26.329,0,0,0-3-.038c-.19,0-.227.076-.227.227v5.384c0,.19.076.227.227.227A7.414,7.414,0,0,1-1136.757,535.383Z" transform="translate(3636.795 -2167.304)" fill="#333"/>
    <path id="패스_13174" data-name="패스 13174" d="M-1286.815,542.287c-.341-.038-.834.152-1.1-.076s-.265-.72-.417-1.062c-.3-.872-.607-1.706-.872-2.578-.076-.19-.152-.265-.341-.265h-5.081c-.228,0-.3.076-.341.265-.379,1.137-.8,2.313-1.175,3.45a.34.34,0,0,1-.379.265c-.607,0-1.213-.038-1.82,0-.3,0-.3-.076-.227-.341,1.365-3.754,2.692-7.469,4.057-11.223.341-.986.72-1.972,1.062-2.957a.33.33,0,0,1,.379-.265h1.9a.336.336,0,0,1,.379.227l5.119,14.218c.076.265.038.3-.19.3A7.011,7.011,0,0,1-1286.815,542.287Zm-5.27-12.285c-.72,2.123-1.441,4.209-2.123,6.256-.076.265.076.227.228.227h3.829c.265,0,.3-.038.227-.3-.493-1.365-.948-2.768-1.4-4.133A18.9,18.9,0,0,1-1292.086,530Z" transform="translate(3734.833 -2167.27)" fill="#333"/>
    <path id="패스_13175" data-name="패스 13175" d="M-1071.884,540.581c-1.327,2.464-5.536,2.578-7.166-.265a6.932,6.932,0,0,1-.8-3.981,5.82,5.82,0,0,1,1.213-3.375,4.2,4.2,0,0,1,6.1-.417c.19.228.341.455.531.72.076-.076.038-.19.038-.3v-5.119c0-.265.038-.341.3-.341a11.164,11.164,0,0,0,1.592,0c.3,0,.341.076.341.341v14.067c0,.3-.076.379-.379.341-.531-.038-1.024,0-1.555,0-.19,0-.265-.076-.265-.265A8.437,8.437,0,0,0-1071.884,540.581Zm-.038-3.678a4.583,4.583,0,0,0-.038-.72,6.593,6.593,0,0,0-.19-.834,2.737,2.737,0,0,0-2.5-2.01,2.588,2.588,0,0,0-2.5,1.63,4.656,4.656,0,0,0,.114,4.133,2.461,2.461,0,0,0,2.389,1.4,2.559,2.559,0,0,0,2.275-1.441A4.2,4.2,0,0,0-1071.921,536.9Z" transform="translate(3599.031 -2167.27)" fill="#333"/>
    <path id="패스_13176" data-name="패스 13176" d="M-1226.4,539.749a3.561,3.561,0,0,1,1.4-1.4,4.255,4.255,0,0,1,5.763,1.63,6.854,6.854,0,0,1-.076,6.825,4.193,4.193,0,0,1-6.066,1.251,4.233,4.233,0,0,1-.948-1.062c-.076.076-.038.19-.038.265v4.7c0,.227-.038.3-.3.3a11.685,11.685,0,0,0-1.63,0c-.265,0-.3-.076-.3-.3V538.27c0-.265.076-.341.341-.341.531.038,1.024,0,1.554,0,.228,0,.265.076.265.265C-1226.4,538.725-1226.4,539.18-1226.4,539.749Zm5.725,3.374a4.273,4.273,0,0,0-.3-1.517,2.7,2.7,0,0,0-2.047-1.82,2.479,2.479,0,0,0-2.616,1.1,4.708,4.708,0,0,0,.038,4.929,2.61,2.61,0,0,0,4.209.076A4.769,4.769,0,0,0-1220.676,543.123Z" transform="translate(3691.367 -2173.679)" fill="#333"/>
    <path id="패스_13177" data-name="패스 13177" d="M-1257.563,547.036V552c0,.265-.038.379-.341.341a11.164,11.164,0,0,0-1.592,0c-.265,0-.3-.076-.3-.3v-13.65c0-.265.076-.341.341-.341.531.038,1.062,0,1.592,0,.19,0,.228.038.228.227v1.4c.114.038.114-.076.151-.114a3.842,3.842,0,0,1,3.83-1.63,4.039,4.039,0,0,1,3.6,3.033,7.083,7.083,0,0,1-.379,5.687,4.25,4.25,0,0,1-6.067,1.517,4.063,4.063,0,0,1-.607-.531C-1257.26,547.491-1257.373,547.263-1257.563,547.036Zm0-3.64a4.459,4.459,0,0,0,.265,1.706,2.649,2.649,0,0,0,2.389,1.858,2.525,2.525,0,0,0,2.578-1.706,4.77,4.77,0,0,0-.076-3.943,2.433,2.433,0,0,0-2.389-1.517,2.529,2.529,0,0,0-2.351,1.517A4.043,4.043,0,0,0-1257.563,543.4Z" transform="translate(3710.737 -2173.725)" fill="#333"/>
    <path id="패스_13178" data-name="패스 13178" d="M-1011.583,546.937a4.184,4.184,0,0,1-6.067.986,3,3,0,0,1,.493-4.853,5.542,5.542,0,0,1,2.351-.607c.91-.076,1.858-.114,2.768-.152.3,0,.417-.114.379-.417a3.243,3.243,0,0,1,0-.607,1.717,1.717,0,0,0-1.593-1.63,2.837,2.837,0,0,0-2.009.341,1.6,1.6,0,0,0-.607.72c-.076.3-.265.379-.569.379a8.22,8.22,0,0,0-1.365,0c-.3.038-.3-.114-.265-.341a3,3,0,0,1,1.555-2.275,5.573,5.573,0,0,1,5.5-.038,3.021,3.021,0,0,1,1.593,2.73v7.166c0,.227-.076.3-.3.3h-1.555c-.227,0-.265-.076-.265-.265C-1011.583,547.923-1011.583,547.43-1011.583,546.937Zm-2.654.114a2.621,2.621,0,0,0,1.706-.607,2.614,2.614,0,0,0,.872-2.275c0-.227-.038-.3-.3-.3-.834.076-1.63.076-2.465.152a2.877,2.877,0,0,0-1.365.417,1.32,1.32,0,0,0-.379,1.9A2.21,2.21,0,0,0-1014.237,547.05Z" transform="translate(3561.025 -2173.625)" fill="#333"/>
    <path id="패스_13179" data-name="패스 13179" d="M-1179.122,543.841h-3.488c-.227,0-.265.038-.265.265a2.725,2.725,0,0,0,1.555,2.578,3.036,3.036,0,0,0,3.185-.3,1.26,1.26,0,0,0,.493-.607c.114-.265.265-.3.531-.3.493,0,.986.038,1.441,0,.265,0,.265.114.227.3a3.436,3.436,0,0,1-1.63,2.2,5.6,5.6,0,0,1-5.46.227,4.336,4.336,0,0,1-2.351-3.071,7.008,7.008,0,0,1,.417-4.815,4.394,4.394,0,0,1,3.943-2.54,4.819,4.819,0,0,1,3.071.72,4.7,4.7,0,0,1,2.047,3.375,8.575,8.575,0,0,1,.076,1.706c0,.227-.076.265-.265.265Zm-1.1-1.517h2.427c.189,0,.265-.038.227-.265a2.582,2.582,0,0,0-1.555-2.275,2.688,2.688,0,0,0-3.716,2.047c-.076.455-.076.455.379.455C-1181.7,542.324-1180.942,542.324-1180.222,542.324Z" transform="translate(3664.373 -2173.639)" fill="#333"/>
    <path id="패스_13180" data-name="패스 13180" d="M-1110.616,543.355a6.226,6.226,0,0,1,.569-2.882,4.444,4.444,0,0,1,3.526-2.616,5.267,5.267,0,0,1,4.171.91,4.7,4.7,0,0,1,1.744,2.957,6.86,6.86,0,0,1-.493,4.512,4.486,4.486,0,0,1-3.829,2.5,5.73,5.73,0,0,1-2.768-.379,4.661,4.661,0,0,1-2.768-3.488A5.161,5.161,0,0,1-1110.616,543.355Zm7.924-.076a5.031,5.031,0,0,0-.341-1.972,2.447,2.447,0,0,0-2.351-1.668,2.5,2.5,0,0,0-2.54,1.517,5.157,5.157,0,0,0,0,4.36A2.452,2.452,0,0,0-1105.5,547a2.49,2.49,0,0,0,2.389-1.479A5.589,5.589,0,0,0-1102.692,543.279Z" transform="translate(3618.124 -2173.646)" fill="#333"/>
    <path id="패스_13182" data-name="패스 13182" d="M-942.654,545.543h.265c.493-.038.872-.038.986.569a1.113,1.113,0,0,0,.758.72,3.509,3.509,0,0,0,2.768,0,1.2,1.2,0,0,0,.758-1.175,1.094,1.094,0,0,0-.8-.986,17.832,17.832,0,0,0-2.54-.682,7.641,7.641,0,0,1-1.554-.569,2.779,2.779,0,0,1-.265-4.777,4.446,4.446,0,0,1,2.275-.8,5.013,5.013,0,0,1,3.792.948,3.061,3.061,0,0,1,1.1,2.047c0,.152,0,.19-.152.19h-1.782a.179.179,0,0,1-.19-.19,1.571,1.571,0,0,0-1.327-1.251,2.94,2.94,0,0,0-1.972.152,1.19,1.19,0,0,0-.758,1.1,1.14,1.14,0,0,0,.758,1.062,11.659,11.659,0,0,0,2.5.682,11.027,11.027,0,0,1,1.479.455,2.726,2.726,0,0,1,.91,4.436,4.393,4.393,0,0,1-2.275,1.175,6,6,0,0,1-4.057-.455,3.138,3.138,0,0,1-1.744-2.427c-.038-.228.038-.265.227-.265A3.015,3.015,0,0,0-942.654,545.543Z" transform="translate(3514.504 -2173.673)" fill="#080808"/>
    <path id="패스_13183" data-name="패스 13183" d="M-988.1,545.667h.19c.531-.038.948-.076,1.1.645.076.379.493.607.872.758a3.451,3.451,0,0,0,2.465,0,1.228,1.228,0,0,0,.872-.986,1.021,1.021,0,0,0-.758-1.213,19.843,19.843,0,0,0-2.578-.682,5.593,5.593,0,0,1-2.01-.872,2.8,2.8,0,0,1,.114-4.4,4.348,4.348,0,0,1,2.351-.872,5.164,5.164,0,0,1,3.716.872,3,3,0,0,1,1.175,2.047c.038.19,0,.3-.228.3-.531-.038-1.1,0-1.63,0-.152,0-.227-.038-.227-.152a1.7,1.7,0,0,0-1.706-1.327,2.7,2.7,0,0,0-1.63.227,1.215,1.215,0,0,0-.72,1.1,1.15,1.15,0,0,0,.72,1.024,9.409,9.409,0,0,0,2.237.645c.569.152,1.175.3,1.706.493a2.72,2.72,0,0,1,.834,4.588,4.531,4.531,0,0,1-2.54,1.1,6.026,6.026,0,0,1-3.64-.531,3.33,3.33,0,0,1-1.744-2.275c-.076-.379-.076-.417.341-.417A2.214,2.214,0,0,1-988.1,545.667Z" transform="translate(3542.738 -2173.796)" fill="#333"/>
    <path id="패스_13185" data-name="패스 13185" d="M-1038.284,545.082a4.108,4.108,0,0,1-3.526,3.678,6.194,6.194,0,0,1-2.768-.114,4.22,4.22,0,0,1-2.844-2.465,6.485,6.485,0,0,1,.266-6.066,4.4,4.4,0,0,1,3.754-2.237,5.2,5.2,0,0,1,3.564.948,4.032,4.032,0,0,1,1.517,2.578c.038.19.038.3-.227.3-.531-.038-1.1,0-1.63,0-.114,0-.265,0-.3-.152a2.325,2.325,0,0,0-2.54-1.782,2.571,2.571,0,0,0-2.427,1.858,5.228,5.228,0,0,0,.076,3.716,2.719,2.719,0,0,0,4.36.986,2.731,2.731,0,0,0,.569-1.024c.038-.152.076-.227.228-.227Z" transform="translate(3579.271 -2173.704)" fill="#333"/>
    <path id="패스_13188" data-name="패스 13188" d="M-961.458,539.124v-3.261c0-.227-.038-.3-.3-.3a9.224,9.224,0,0,1-1.024,0c-.152,0-.265,0-.227-.227v-1.327c0-.19.076-.227.227-.227h.986c.3.038.379-.076.341-.379-.038-.645,0-1.289,0-1.934,0-.19.038-.265.227-.265h1.782c.19,0,.265.076.227.265v2.047c0,.227.076.265.265.265h1.517c.19,0,.227.038.227.228V535.3c0,.227-.076.227-.265.227h-1.479c-.228,0-.265.076-.265.3v5.687c0,.91.455,1.327,1.365,1.289.645-.038.645-.038.645.607v.834c.038.228-.076.3-.265.341a7.641,7.641,0,0,1-2.275-.076,2.127,2.127,0,0,1-1.706-2.123C-961.5,541.248-961.42,540.072-961.458,539.124Z" transform="translate(3526.483 -2169.567)" fill="#333"/>
    <path id="패스_13189" data-name="패스 13189" d="M-1194.663,534.984V542c0,.3-.076.379-.379.341-.531-.038-1.024,0-1.554,0-.228,0-.3-.038-.3-.3V527.97c0-.3.076-.379.379-.379a9.628,9.628,0,0,0,1.479,0c.341-.038.379.114.379.379Z" transform="translate(3671.686 -2167.323)" fill="#333"/>
    <path id="패스_13190" data-name="패스 13190" d="M-1234.033,494.924h-2.237c-.266,0-.341.076-.3.341a2.1,2.1,0,0,0,3.185,1.668,1.372,1.372,0,0,0,.569-.569.315.315,0,0,1,.417-.228h.531c.379,0,.417.038.265.379a2.758,2.758,0,0,1-2.123,1.668,3.134,3.134,0,0,1-3.564-1.441,4.368,4.368,0,0,1,.076-4.36,3.107,3.107,0,0,1,3.412-1.327,2.988,2.988,0,0,1,2.313,2.616c.038.3.038.607.076.948,0,.3-.114.379-.379.341C-1232.554,494.924-1233.313,494.924-1234.033,494.924Zm-.607-.948h1.744c.152,0,.265,0,.227-.19a2.065,2.065,0,0,0-.493-1.175,1.8,1.8,0,0,0-1.9-.531,1.908,1.908,0,0,0-1.4,1.592c-.038.265,0,.341.265.3Z" transform="translate(3697.103 -2144.59)" fill="#999"/>
    <path id="패스_13191" data-name="패스 13191" d="M-1181.637,494.758a3.444,3.444,0,0,1-1.4,2.882,3.285,3.285,0,0,1-5.156-2.351,4.807,4.807,0,0,1,.227-2.427,3.019,3.019,0,0,1,3.185-1.972C-1182.812,491-1181.637,492.369-1181.637,494.758Zm-5.422-.19a2.849,2.849,0,0,0,.076.8,2.009,2.009,0,0,0,1.744,1.744,1.919,1.919,0,0,0,2.161-1.4,3.83,3.83,0,0,0,0-2.351,1.872,1.872,0,0,0-1.9-1.4,1.907,1.907,0,0,0-1.934,1.441A4,4,0,0,0-1187.059,494.568Z" transform="translate(3666.319 -2144.537)" fill="#999"/>
    <path id="패스_13192" data-name="패스 13192" d="M-1165.587,491.994a2.671,2.671,0,0,1,2.919-1.1,2.221,2.221,0,0,1,1.82,2.351c.038,1.517,0,3.033,0,4.55,0,.19-.076.227-.265.265-.948.038-.948.038-.948-.91v-3.412a4.639,4.639,0,0,0-.076-.72,1.416,1.416,0,0,0-1.479-1.137,1.685,1.685,0,0,0-1.82,1.175,2.551,2.551,0,0,0-.152.91v3.716c0,.265-.076.341-.341.341-.872,0-.872,0-.872-.872V491.2c0-.265.038-.341.341-.341.8,0,.8,0,.8.8A.693.693,0,0,1-1165.587,491.994Z" transform="translate(3652.999 -2144.504)" fill="#999"/>
    <path id="패스_13193" data-name="패스 13193" d="M-1215.662,492.236a2.213,2.213,0,0,1,1.517-1.175,3.247,3.247,0,0,1,1.479,0,2.3,2.3,0,0,1,1.782,2.313c.038,1.517,0,3.071,0,4.588,0,.19-.076.228-.265.265-.948.038-.948.038-.948-.91v-3.45a4.639,4.639,0,0,0-.076-.72,1.255,1.255,0,0,0-1.213-1.062,1.815,1.815,0,0,0-1.9.8,2.417,2.417,0,0,0-.3,1.365v3.64c0,.265-.076.341-.341.341-.872,0-.872,0-.872-.872V491.4c0-.265.076-.341.341-.341.8,0,.8,0,.8.758Z" transform="translate(3684.041 -2144.594)" fill="#999"/>
    <path id="패스_13194" data-name="패스 13194" d="M-1267.148,496.149h.341c.152,0,.227.038.265.19a1.13,1.13,0,0,0,.948.834,2.705,2.705,0,0,0,1.554-.076.9.9,0,0,0,.645-.872.782.782,0,0,0-.645-.8c-.531-.19-1.1-.3-1.668-.455a5.9,5.9,0,0,1-.872-.3,1.792,1.792,0,0,1-.227-3.147,3.326,3.326,0,0,1,3.678.038,2.03,2.03,0,0,1,.8,1.213c.038.19,0,.3-.227.265h-.3c-.341,0-.645.038-.758-.417-.038-.227-.265-.341-.455-.455a2.094,2.094,0,0,0-1.782,0,.868.868,0,0,0-.569.834.808.808,0,0,0,.569.758,10.5,10.5,0,0,0,1.555.455,10.474,10.474,0,0,1,1.024.3,1.773,1.773,0,0,1,.417,3.071,3.3,3.3,0,0,1-2.427.645,2.947,2.947,0,0,1-1.668-.569,2.121,2.121,0,0,1-.8-1.175c-.076-.265-.038-.379.265-.341Z" transform="translate(3715.697 -2144.601)" fill="#999"/>
    <path id="패스_13195" data-name="패스 13195" d="M-1295.7,488.767v-4.626c0-.265.076-.341.341-.341.91,0,.91,0,.91.91v7.583c0,.265.076.341.341.341h4.057c.3,0,.379.114.379.379,0,.758,0,.758-.72.758h-4.967c-.265,0-.341-.076-.341-.341Z" transform="translate(3733.025 -2140.139)" fill="#999"/>
    <path id="패스_13196" data-name="패스 13196" d="M-1249.344,491.562c0-.645-.038-1.289,0-1.934,0-.341-.114-.455-.417-.417h-.152c-.569,0-.493.076-.493-.493,0-.531,0-.531.531-.531s.531,0,.531-.531v-.948c0-.19.076-.227.228-.227.986-.038.986-.038.986.91,0,.8,0,.8.8.8.569,0,.569,0,.569.569,0,.341-.076.493-.417.455-.3-.038-.72-.152-.91.038s-.076.607-.076.91v3.223c0,.758.265,1.024,1.024.986.3-.038.379.038.379.341-.038.682,0,.682-.682.682-1.4,0-1.934-.493-1.934-1.9C-1249.344,492.851-1249.344,492.206-1249.344,491.562Z" transform="translate(3704.907 -2141.796)" fill="#999"/>
    <path id="패스_13197" data-name="패스 13197" d="M-1275.5,494.6v-3.261c0-.3.076-.341.341-.341.872,0,.872,0,.872.872v5.915c0,.3-.076.379-.379.379-.834,0-.834,0-.834-.8Z" transform="translate(3720.484 -2144.609)" fill="#999"/>
    <path id="패스_13198" data-name="패스 13198" d="M-1275.142,485.479a.754.754,0,0,1-.758-.72.761.761,0,0,1,.758-.758.754.754,0,0,1,.758.72A.761.761,0,0,1-1275.142,485.479Z" transform="translate(3720.733 -2140.263)" fill="#999"/>
    <rect id="사각형_411" data-name="사각형 411" width="35" height="35" rx="8" transform="translate(2394 -1657)" fill="url(#linear-gradient)"/>
    <g id="그룹_131" data-name="그룹 131" transform="translate(2399.062 -1652.935)">
      <path id="패스_13199" data-name="패스 13199" d="M-1389.45,509.82a12.524,12.524,0,0,1-1.668-3.526,13.68,13.68,0,0,1-.493-4.284c.114-.607.152-1.251.3-1.858a12.356,12.356,0,0,1,3.754-6.332,11.609,11.609,0,0,1,4.739-2.578,11.985,11.985,0,0,1,11.033,2.313c.038.038.114.076.152.114a12.3,12.3,0,0,1,3.564,5.194,12.469,12.469,0,0,1,.607,2.616c.038.455.076.91.076,1.365a11.832,11.832,0,0,1-1.972,6.635.829.829,0,0,1-.114.19,12.422,12.422,0,0,1-3.678,3.488,11.756,11.756,0,0,1-2.2,1.062c-.3.114-.417.038-.341-.3a4.283,4.283,0,0,0,.114-.682.888.888,0,0,1,.645-.91,9.546,9.546,0,0,0,3.3-2.465l.265-.265a10.313,10.313,0,0,0,2.275-8.683c-.038-.227-.076-.417-.114-.645a10.568,10.568,0,0,0-11.564-7.887,10.323,10.323,0,0,0-6.673,3.64,10.156,10.156,0,0,0-1.858,3.147,9.83,9.83,0,0,0-.569,5,11.631,11.631,0,0,0,.19,1.213,10.1,10.1,0,0,0,2.465,4.55,9.824,9.824,0,0,0,3.375,2.465.681.681,0,0,1,.455.645,7.289,7.289,0,0,0,.114.834c.038.379-.038.455-.379.3a12.146,12.146,0,0,1-5.649-4.284C-1389.336,509.933-1389.374,509.858-1389.45,509.82Z" transform="translate(1391.618 -490.777)" fill="#fdfbfd"/>
      <path id="패스_13200" data-name="패스 13200" d="M-1366.418,541.1a13.967,13.967,0,0,1-.645-3.033c-.152-1.213-.3-2.427-.417-3.64,0-.569-.076-1.138-.038-1.744a1.964,1.964,0,0,1,1.175-1.934,4.4,4.4,0,0,1,3.185-.19,2.459,2.459,0,0,1,1.251.8,2.385,2.385,0,0,1,.417,1.479c.038.493-.038.986-.038,1.479a52.929,52.929,0,0,1-.834,5.991,3.2,3.2,0,0,1-.19.645C-1363.271,542.162-1365.621,542.389-1366.418,541.1Z" transform="translate(1376.662 -515.347)" fill="#fefefe"/>
      <path id="패스_13214" data-name="패스 13214" d="M-1380.93,510.743a11.411,11.411,0,0,1-.038-2.275,9.818,9.818,0,0,1,.8-2.73,8.941,8.941,0,0,1,2.237-2.692,8.135,8.135,0,0,1,10.427.3,7.988,7.988,0,0,1,2.54,4.4.133.133,0,0,0,.038.076,8.374,8.374,0,0,1-.531,4.815,8.664,8.664,0,0,1-2.692,3.375c-.114.076-.19.19-.341.152-.152-.076-.076-.227-.114-.379v-.3c0-1.137.038-1.137.8-2.01a5.644,5.644,0,0,0,1.327-2.844,6.045,6.045,0,0,0-.72-4.36,4.825,4.825,0,0,0-1.138-1.479,6.354,6.354,0,0,0-5.687-1.782,6.277,6.277,0,0,0-4.588,3.261,6.143,6.143,0,0,0-.721,4.4,6.062,6.062,0,0,0,1.744,3.375.881.881,0,0,1,.341.872,3.968,3.968,0,0,0,.038.948c0,.114.038.227-.076.3s-.227-.038-.3-.114a7.676,7.676,0,0,1-2.882-3.678A13.114,13.114,0,0,1-1380.93,510.743Z" transform="translate(1385.031 -497.313)" fill="#fdfbfd"/>
      <path id="패스_13215" data-name="패스 13215" d="M-1362.31,517.517a3.125,3.125,0,0,1-2.01.8,2.818,2.818,0,0,1-1.782-.683,2.867,2.867,0,0,1-.19-4.133,4.6,4.6,0,0,1,.834-.569,2.824,2.824,0,0,1,3.185.493,4.172,4.172,0,0,1,.645.948A2.873,2.873,0,0,1-1362.31,517.517Z" transform="translate(1376.384 -504.352)" fill="#fefefe"/>
    </g>
  </g>
</svg>
